<svg width="1024" height="1024" viewBox="0 0 1024 1024" fill="none" xmlns="http://www.w3.org/2000/svg">
<g clip-path="url(#clip0_4_44)">
<path d="M566.835 525.235V848.414C566.835 851.445 564.391 853.889 561.36 853.889H519.466C484.611 853.889 456.355 825.633 456.355 790.778V635.666L566.835 525.235Z" stroke="white" stroke-width="32"/>
<path d="M790.142 236.47C790.142 293.373 743.995 339.52 687.093 339.52H566.835V390.116L456.355 500.597V339.52H232.217C229.919 339.52 227.817 338.591 226.302 337.076C224.786 335.561 223.858 333.458 223.858 331.161C223.858 274.259 270.005 228.111 326.907 228.111H781.832C784.129 228.111 786.232 229.04 787.747 230.555C789.214 232.071 790.142 234.173 790.142 236.47Z" stroke="white" stroke-width="32"/>
</g>
<defs>
<clipPath id="clip0_4_44">
<rect width="1024" height="1024" fill="white"/>
</clipPath>
</defs>
</svg>
