<svg xmlns="http://www.w3.org/2000/svg" version="1.1" viewBox="0 0 108 108" fill="#3b3b3b">
  <path d="M60.310755 52.337239v34.0853c0 .31967-.25779.577461-.577461.577461h-4.41856c-3.676118 0-6.656198-2.980078-6.656198-6.6562V63.984302Z"/>
  <path d="M83.862668 21.881651c0 6.001406-4.867123 10.868524-10.868533 10.868524h-12.68338v5.336306L48.658537 49.738695v-16.98852H25.01898c-.242322 0-.464026-.09796-.623854-.257794-.159833-.159828-.257794-.381529-.257794-.623857C24.137332 25.867121 29.004453 21 35.005856 21h47.980311c.242328 0 .464032.09796.623861.257794.154678.159828.252641.381532.25264.623857"/>
</svg>
